REM DIRINDEX 1\2\6,1\2\7,1\2\8,1\2\9,1\3\10,1\3\11,1\4\12,1\4\13,1\4\14,1\5\15,1\5\16,1\5\17
REM DIRNAME cjc029,folder01,folder02,folder03,folder04,folder05,folder06,folder07,folder08,folder09,folder10,folder11,folder12,folder13,folder14,folder15,folder16
TITLE ""
FILE "1400_3_sec03_0249_0265.mp3" MP3
  TRACK 01 AUDIO
    TITLE "0:"
    INDEX 01 00:00:00
  TRACK 02 AUDIO
    TITLE "17:cjc029_4926"
    INDEX 01 00:00:17
  TRACK 03 AUDIO
    TITLE "0:"
    INDEX 01 00:01:22
  TRACK 04 AUDIO
    TITLE "16:cjc029_4927"
    INDEX 01 00:01:26
  TRACK 05 AUDIO
    TITLE "0:"
    INDEX 01 00:02:42
  TRACK 06 AUDIO
    TITLE "17:cjc029_4928"
    INDEX 01 00:03:27
  TRACK 07 AUDIO
    TITLE "0:"
    INDEX 01 00:04:46
  TRACK 08 AUDIO
    TITLE "16:cjc029_4929"
    INDEX 01 00:04:54
  TRACK 09 AUDIO
    TITLE "0:"
    INDEX 01 00:05:54
  TRACK 10 AUDIO
    TITLE "17:cjc029_4930"
    INDEX 01 00:06:41
  TRACK 11 AUDIO
    TITLE "0:"
    INDEX 01 00:10:29
  TRACK 12 AUDIO
    TITLE "16:cjc029_4931"
    INDEX 01 00:10:39
  TRACK 13 AUDIO
    TITLE "0:"
    INDEX 01 00:11:33
  TRACK 14 AUDIO
    TITLE "17:cjc029_4932"
    INDEX 01 00:12:16
  TRACK 15 AUDIO
    TITLE "0:"
    INDEX 01 00:13:18
  TRACK 16 AUDIO
    TITLE "16:cjc029_4933"
    INDEX 01 00:13:24
  TRACK 17 AUDIO
    TITLE "0:"
    INDEX 01 00:14:27
  TRACK 18 AUDIO
    TITLE "17:cjc029_4934"
    INDEX 01 00:15:13
  TRACK 19 AUDIO
    TITLE "0:"
    INDEX 01 00:17:33
  TRACK 20 AUDIO
    TITLE "16:cjc029_4935"
    INDEX 01 00:17:37
  TRACK 21 AUDIO
    TITLE "0:"
    INDEX 01 00:18:42
  TRACK 22 AUDIO
    TITLE "17:cjc029_4936"
    INDEX 01 00:19:28
  TRACK 23 AUDIO
    TITLE "0:"
    INDEX 01 00:20:30
  TRACK 24 AUDIO
    TITLE "16:cjc029_4937"
    INDEX 01 00:20:36
  TRACK 25 AUDIO
    TITLE "0:"
    INDEX 01 00:21:62
  TRACK 26 AUDIO
    TITLE "17:cjc029_4938"
    INDEX 01 00:22:44
  TRACK 27 AUDIO
    TITLE "0:"
    INDEX 01 00:23:59
  TRACK 28 AUDIO
    TITLE "16:cjc029_4939"
    INDEX 01 00:23:63
  TRACK 29 AUDIO
    TITLE "0:"
    INDEX 01 00:24:65
  TRACK 30 AUDIO
    TITLE "17:cjc029_4940"
    INDEX 01 00:25:48
  TRACK 31 AUDIO
    TITLE "0:"
    INDEX 01 00:26:67
  TRACK 32 AUDIO
    TITLE "16:cjc029_4941"
    INDEX 01 00:26:69
  TRACK 33 AUDIO
    TITLE "0:"
    INDEX 01 00:27:65
  TRACK 34 AUDIO
    TITLE "17:cjc029_4942"
    INDEX 01 00:28:49
  TRACK 35 AUDIO
    TITLE "0:"
    INDEX 01 00:29:54
  TRACK 36 AUDIO
    TITLE "16:cjc029_4943"
    INDEX 01 00:29:58
  TRACK 37 AUDIO
    TITLE "0:"
    INDEX 01 00:30:63
  TRACK 38 AUDIO
    TITLE "17:cjc029_4944"
    INDEX 01 00:31:49
  TRACK 39 AUDIO
    TITLE "0:"
    INDEX 01 00:32:62
  TRACK 40 AUDIO
    TITLE "16:cjc029_4945"
    INDEX 01 00:32:70
  TRACK 41 AUDIO
    TITLE "0:"
    INDEX 01 00:33:69
  TRACK 42 AUDIO
    TITLE "17:cjc029_4946"
    INDEX 01 00:34:53
  TRACK 43 AUDIO
    TITLE "0:"
    INDEX 01 00:35:51
  TRACK 44 AUDIO
    TITLE "16:cjc029_4947"
    INDEX 01 00:35:57
  TRACK 45 AUDIO
    TITLE "0:"
    INDEX 01 00:36:68
  TRACK 46 AUDIO
    TITLE "17:cjc029_4948"
    INDEX 01 00:37:52
  TRACK 47 AUDIO
    TITLE "0:"
    INDEX 01 00:38:51
  TRACK 48 AUDIO
    TITLE "16:cjc029_4949"
    INDEX 01 00:38:59
  TRACK 49 AUDIO
    TITLE "0:"
    INDEX 01 00:39:68
  TRACK 50 AUDIO
    TITLE "17:cjc029_4950"
    INDEX 01 00:40:52
  TRACK 51 AUDIO
    TITLE "0:"
    INDEX 01 00:43:11
  TRACK 52 AUDIO
    TITLE "16:cjc029_4951"
    INDEX 01 00:43:19
  TRACK 53 AUDIO
    TITLE "0:"
    INDEX 01 00:44:32
  TRACK 54 AUDIO
    TITLE "17:cjc029_4952"
    INDEX 01 00:45:18
  TRACK 55 AUDIO
    TITLE "0:"
    INDEX 01 00:47:48
  TRACK 56 AUDIO
    TITLE "16:cjc029_4953"
    INDEX 01 00:47:56
  TRACK 57 AUDIO
    TITLE "0:"
    INDEX 01 00:48:55
  TRACK 58 AUDIO
    TITLE "17:cjc029_4954"
    INDEX 01 00:49:39
  TRACK 59 AUDIO
    TITLE "0:"
    INDEX 01 00:50:72
  TRACK 60 AUDIO
    TITLE "16:cjc029_4955"
    INDEX 01 00:51:03
  TRACK 61 AUDIO
    TITLE "0:"
    INDEX 01 00:52:18
  TRACK 62 AUDIO
    TITLE "17:cjc029_4956"
    INDEX 01 00:53:06
  TRACK 63 AUDIO
    TITLE "0:"
    INDEX 01 00:54:23
  TRACK 64 AUDIO
    TITLE "16:cjc029_4957"
    INDEX 01 00:54:29
  TRACK 65 AUDIO
    TITLE "0:"
    INDEX 01 00:55:32
  TRACK 66 AUDIO
    TITLE "17:cjc029_4958"
    INDEX 01 00:56:18
  TRACK 67 AUDIO
    TITLE "0:"
    INDEX 01 00:57:17
  TRACK 68 AUDIO
    TITLE "16:cjc029_4959"
    INDEX 01 00:57:23
  TRACK 69 AUDIO
    TITLE "0:"
    INDEX 01 00:58:26
